<mxfile host="Electron" modified="2025-01-17T10:02:54.426Z" agent="Mozilla/5.0 (Windows NT 10.0; Win64; x64) AppleWebKit/537.36 (KHTML, like Gecko) draw.io/21.6.1 Chrome/112.0.5615.204 Electron/24.6.1 Safari/537.36" etag="txOvoc1vVU4GEA3Cix7e" version="21.6.1" type="device">
  <diagram name="Page-1" id="e7e014a7-5840-1c2e-5031-d8a46d1fe8dd">
    <mxGraphModel dx="1036" dy="606" grid="1" gridSize="10" guides="1" tooltips="1" connect="1" arrows="1" fold="1" page="1" pageScale="1" pageWidth="1169" pageHeight="826" background="none" math="0" shadow="0">
      <root>
        <mxCell id="0" />
        <mxCell id="1" parent="0" />
        <mxCell id="2" value="User" style="swimlane;whiteSpace=wrap;labelBackgroundColor=none;" parent="1" vertex="1">
          <mxGeometry x="40" y="40" width="280" height="490" as="geometry" />
        </mxCell>
        <mxCell id="q0-vvOxoMpotTMaAw7Id-45" value="" style="edgeStyle=orthogonalEdgeStyle;rounded=0;orthogonalLoop=1;jettySize=auto;html=1;" parent="2" source="5" target="q0-vvOxoMpotTMaAw7Id-51" edge="1">
          <mxGeometry relative="1" as="geometry">
            <mxPoint x="139.98275862068965" y="82" as="targetPoint" />
            <Array as="points" />
          </mxGeometry>
        </mxCell>
        <mxCell id="5" value="" style="ellipse;shape=startState;fillColor=#000000;strokeColor=#ff0000;" parent="2" vertex="1">
          <mxGeometry x="185" y="80" width="30" height="30" as="geometry" />
        </mxCell>
        <mxCell id="q0-vvOxoMpotTMaAw7Id-51" value="&lt;span style=&quot;color: rgb(0, 0, 0); font-family: Helvetica; font-size: 10px; font-style: normal; font-variant-ligatures: normal; font-variant-caps: normal; font-weight: 400; letter-spacing: normal; orphans: 2; text-align: center; text-indent: 0px; text-transform: none; widows: 2; word-spacing: 0px; -webkit-text-stroke-width: 0px; background-color: rgb(251, 251, 251); text-decoration-thickness: initial; text-decoration-style: initial; text-decoration-color: initial; float: none; display: inline !important;&quot;&gt;1. Access to &quot;Payment Management&quot; page&lt;/span&gt;" style="rounded=1;whiteSpace=wrap;html=1;verticalAlign=middle;" parent="2" vertex="1">
          <mxGeometry x="65" y="160" width="150" height="58" as="geometry" />
        </mxCell>
        <mxCell id="bUwD3FaFitT1GLIlqr40-110" value="" style="edgeStyle=orthogonalEdgeStyle;rounded=0;orthogonalLoop=1;jettySize=auto;html=1;" parent="2" target="5" edge="1">
          <mxGeometry relative="1" as="geometry">
            <mxPoint x="140" y="95" as="sourcePoint" />
          </mxGeometry>
        </mxCell>
        <mxCell id="bUwD3FaFitT1GLIlqr40-21" value="UC8.1 - View Payments List" style="text;html=1;align=center;verticalAlign=middle;resizable=0;points=[];autosize=1;strokeColor=none;fillColor=none;" parent="2" vertex="1">
          <mxGeometry x="5" y="20" width="170" height="30" as="geometry" />
        </mxCell>
        <mxCell id="bUwD3FaFitT1GLIlqr40-117" value="" style="edgeStyle=orthogonalEdgeStyle;rounded=0;orthogonalLoop=1;jettySize=auto;html=1;" parent="2" source="bUwD3FaFitT1GLIlqr40-116" target="5" edge="1">
          <mxGeometry relative="1" as="geometry" />
        </mxCell>
        <mxCell id="bUwD3FaFitT1GLIlqr40-116" value="&lt;font style=&quot;font-size: 10px;&quot;&gt;User is logged in and &lt;br&gt;has permisson&lt;/font&gt;" style="shape=note;size=20;whiteSpace=wrap;html=1;" parent="2" vertex="1">
          <mxGeometry x="30" y="70" width="120" height="50" as="geometry" />
        </mxCell>
        <mxCell id="3" value="System" style="swimlane;whiteSpace=wrap" parent="1" vertex="1">
          <mxGeometry x="320" y="40" width="290" height="490" as="geometry" />
        </mxCell>
        <mxCell id="q0-vvOxoMpotTMaAw7Id-52" value="&lt;font style=&quot;font-size: 10px;&quot;&gt;2. Retrieve list of payments&lt;/font&gt;" style="rounded=1;whiteSpace=wrap;html=1;verticalAlign=middle;" parent="3" vertex="1">
          <mxGeometry x="67.5" y="82" width="155" height="58" as="geometry" />
        </mxCell>
        <mxCell id="bUwD3FaFitT1GLIlqr40-51" style="edgeStyle=orthogonalEdgeStyle;rounded=0;orthogonalLoop=1;jettySize=auto;html=1;" parent="3" source="bUwD3FaFitT1GLIlqr40-50" target="21" edge="1">
          <mxGeometry relative="1" as="geometry" />
        </mxCell>
        <mxCell id="bUwD3FaFitT1GLIlqr40-50" value="&lt;font style=&quot;font-size: 10px;&quot;&gt;3. Check the results&lt;/font&gt;" style="rounded=1;whiteSpace=wrap;html=1;verticalAlign=middle;" parent="3" vertex="1">
          <mxGeometry x="95.12" y="170" width="99.75" height="58" as="geometry" />
        </mxCell>
        <mxCell id="q0-vvOxoMpotTMaAw7Id-54" style="edgeStyle=orthogonalEdgeStyle;rounded=0;orthogonalLoop=1;jettySize=auto;html=1;" parent="3" source="q0-vvOxoMpotTMaAw7Id-52" target="bUwD3FaFitT1GLIlqr40-50" edge="1">
          <mxGeometry relative="1" as="geometry" />
        </mxCell>
        <mxCell id="bUwD3FaFitT1GLIlqr40-52" style="edgeStyle=orthogonalEdgeStyle;rounded=0;orthogonalLoop=1;jettySize=auto;html=1;" parent="3" source="21" target="q0-vvOxoMpotTMaAw7Id-57" edge="1">
          <mxGeometry relative="1" as="geometry">
            <Array as="points">
              <mxPoint x="73" y="280" />
            </Array>
          </mxGeometry>
        </mxCell>
        <mxCell id="bUwD3FaFitT1GLIlqr40-54" style="edgeStyle=orthogonalEdgeStyle;rounded=0;orthogonalLoop=1;jettySize=auto;html=1;" parent="3" source="21" target="q0-vvOxoMpotTMaAw7Id-58" edge="1">
          <mxGeometry relative="1" as="geometry">
            <Array as="points">
              <mxPoint x="220" y="280" />
            </Array>
          </mxGeometry>
        </mxCell>
        <mxCell id="21" value="Have results?" style="rhombus;fillColor=#ffffc0;strokeColor=#ff0000;whiteSpace=wrap;fontSize=10;" parent="3" vertex="1">
          <mxGeometry x="105" y="260" width="80" height="40" as="geometry" />
        </mxCell>
        <mxCell id="q0-vvOxoMpotTMaAw7Id-57" value="&lt;font style=&quot;font-size: 10px;&quot;&gt;3.1. Display list of payments&lt;/font&gt;" style="rounded=1;whiteSpace=wrap;html=1;verticalAlign=middle;" parent="3" vertex="1">
          <mxGeometry x="20.5" y="310" width="99.5" height="60" as="geometry" />
        </mxCell>
        <mxCell id="q0-vvOxoMpotTMaAw7Id-58" value="&lt;font style=&quot;font-size: 10px;&quot;&gt;3.2. Display the message &quot;No payments found&quot;&lt;/font&gt;" style="rounded=1;whiteSpace=wrap;html=1;verticalAlign=middle;" parent="3" vertex="1">
          <mxGeometry x="170" y="310" width="100" height="58" as="geometry" />
        </mxCell>
        <mxCell id="q0-vvOxoMpotTMaAw7Id-59" value="" style="ellipse;html=1;shape=endState;fillColor=#000000;strokeColor=#ff0000;fontSize=10;" parent="3" vertex="1">
          <mxGeometry x="130" y="437" width="30" height="30" as="geometry" />
        </mxCell>
        <mxCell id="q0-vvOxoMpotTMaAw7Id-64" style="edgeStyle=orthogonalEdgeStyle;rounded=0;orthogonalLoop=1;jettySize=auto;html=1;" parent="3" source="q0-vvOxoMpotTMaAw7Id-57" target="q0-vvOxoMpotTMaAw7Id-59" edge="1">
          <mxGeometry relative="1" as="geometry">
            <Array as="points">
              <mxPoint x="70" y="409" />
              <mxPoint x="145" y="409" />
            </Array>
          </mxGeometry>
        </mxCell>
        <mxCell id="q0-vvOxoMpotTMaAw7Id-65" style="edgeStyle=orthogonalEdgeStyle;rounded=0;orthogonalLoop=1;jettySize=auto;html=1;" parent="3" source="q0-vvOxoMpotTMaAw7Id-58" target="q0-vvOxoMpotTMaAw7Id-59" edge="1">
          <mxGeometry relative="1" as="geometry">
            <Array as="points">
              <mxPoint x="220" y="409" />
              <mxPoint x="145" y="409" />
            </Array>
          </mxGeometry>
        </mxCell>
        <mxCell id="q0-vvOxoMpotTMaAw7Id-66" value="&lt;font size=&quot;1&quot;&gt;yes&lt;/font&gt;" style="text;html=1;align=center;verticalAlign=middle;resizable=0;points=[];autosize=1;strokeColor=none;fillColor=none;" parent="3" vertex="1">
          <mxGeometry x="80" y="270" width="40" height="30" as="geometry" />
        </mxCell>
        <mxCell id="q0-vvOxoMpotTMaAw7Id-67" value="&lt;font size=&quot;1&quot;&gt;no&lt;/font&gt;" style="text;html=1;align=center;verticalAlign=middle;resizable=0;points=[];autosize=1;strokeColor=none;fillColor=none;" parent="3" vertex="1">
          <mxGeometry x="180" y="270" width="30" height="30" as="geometry" />
        </mxCell>
        <mxCell id="q0-vvOxoMpotTMaAw7Id-49" style="edgeStyle=orthogonalEdgeStyle;rounded=0;orthogonalLoop=1;jettySize=auto;html=1;" parent="1" source="q0-vvOxoMpotTMaAw7Id-51" target="q0-vvOxoMpotTMaAw7Id-52" edge="1">
          <mxGeometry relative="1" as="geometry">
            <mxPoint x="244.5" y="147" as="sourcePoint" />
            <mxPoint x="396" y="171" as="targetPoint" />
            <Array as="points">
              <mxPoint x="280" y="229" />
              <mxPoint x="280" y="150" />
            </Array>
          </mxGeometry>
        </mxCell>
        <mxCell id="bUwD3FaFitT1GLIlqr40-63" value="User" style="swimlane;whiteSpace=wrap;labelBackgroundColor=none;" parent="1" vertex="1">
          <mxGeometry x="720" y="40" width="280" height="500" as="geometry" />
        </mxCell>
        <mxCell id="bUwD3FaFitT1GLIlqr40-64" value="" style="edgeStyle=orthogonalEdgeStyle;rounded=0;orthogonalLoop=1;jettySize=auto;html=1;" parent="bUwD3FaFitT1GLIlqr40-63" source="bUwD3FaFitT1GLIlqr40-65" target="bUwD3FaFitT1GLIlqr40-69" edge="1">
          <mxGeometry relative="1" as="geometry">
            <mxPoint x="140" y="82" as="targetPoint" />
            <Array as="points" />
          </mxGeometry>
        </mxCell>
        <mxCell id="bUwD3FaFitT1GLIlqr40-65" value="" style="ellipse;shape=startState;fillColor=#000000;strokeColor=#ff0000;" parent="bUwD3FaFitT1GLIlqr40-63" vertex="1">
          <mxGeometry x="175" y="75" width="30" height="30" as="geometry" />
        </mxCell>
        <mxCell id="bUwD3FaFitT1GLIlqr40-69" value="&lt;font style=&quot;font-size: 10px;&quot;&gt;1. Enter a keyword into the search bar or apply filters&lt;/font&gt;" style="rounded=1;whiteSpace=wrap;html=1;verticalAlign=middle;" parent="bUwD3FaFitT1GLIlqr40-63" vertex="1">
          <mxGeometry x="70" y="150" width="118.75" height="58" as="geometry" />
        </mxCell>
        <mxCell id="bUwD3FaFitT1GLIlqr40-119" value="" style="edgeStyle=orthogonalEdgeStyle;rounded=0;orthogonalLoop=1;jettySize=auto;html=1;" parent="bUwD3FaFitT1GLIlqr40-63" source="bUwD3FaFitT1GLIlqr40-107" target="bUwD3FaFitT1GLIlqr40-65" edge="1">
          <mxGeometry relative="1" as="geometry" />
        </mxCell>
        <mxCell id="bUwD3FaFitT1GLIlqr40-107" value="In UC2.1" style="shape=note;size=20;whiteSpace=wrap;html=1;" parent="bUwD3FaFitT1GLIlqr40-63" vertex="1">
          <mxGeometry x="30" y="70" width="90" height="40" as="geometry" />
        </mxCell>
        <mxCell id="bUwD3FaFitT1GLIlqr40-118" value="UC8.2 - Search payment" style="text;html=1;align=center;verticalAlign=middle;resizable=0;points=[];autosize=1;strokeColor=none;fillColor=none;" parent="bUwD3FaFitT1GLIlqr40-63" vertex="1">
          <mxGeometry x="5" y="20" width="160" height="30" as="geometry" />
        </mxCell>
        <mxCell id="bUwD3FaFitT1GLIlqr40-71" value="System" style="swimlane;whiteSpace=wrap" parent="1" vertex="1">
          <mxGeometry x="1000" y="40" width="310" height="500" as="geometry" />
        </mxCell>
        <mxCell id="bUwD3FaFitT1GLIlqr40-74" value="&lt;font style=&quot;font-size: 10px;&quot;&gt;3. Check the results&lt;/font&gt;" style="rounded=1;whiteSpace=wrap;html=1;verticalAlign=middle;" parent="bUwD3FaFitT1GLIlqr40-71" vertex="1">
          <mxGeometry x="97.87999999999998" y="180" width="106.25" height="50" as="geometry" />
        </mxCell>
        <mxCell id="bUwD3FaFitT1GLIlqr40-93" value="" style="edgeStyle=orthogonalEdgeStyle;rounded=0;orthogonalLoop=1;jettySize=auto;html=1;" parent="bUwD3FaFitT1GLIlqr40-71" source="bUwD3FaFitT1GLIlqr40-91" target="bUwD3FaFitT1GLIlqr40-74" edge="1">
          <mxGeometry relative="1" as="geometry" />
        </mxCell>
        <mxCell id="bUwD3FaFitT1GLIlqr40-91" value="&lt;font style=&quot;font-size: 10px;&quot;&gt;2. Retrieve relavant permissions&lt;/font&gt;" style="rounded=1;whiteSpace=wrap;html=1;verticalAlign=middle;" parent="bUwD3FaFitT1GLIlqr40-71" vertex="1">
          <mxGeometry x="89.75" y="80" width="122.5" height="58" as="geometry" />
        </mxCell>
        <mxCell id="bUwD3FaFitT1GLIlqr40-94" style="edgeStyle=orthogonalEdgeStyle;rounded=0;orthogonalLoop=1;jettySize=auto;html=1;" parent="bUwD3FaFitT1GLIlqr40-71" source="bUwD3FaFitT1GLIlqr40-74" target="bUwD3FaFitT1GLIlqr40-97" edge="1">
          <mxGeometry relative="1" as="geometry">
            <mxPoint x="154.75" y="320" as="sourcePoint" />
          </mxGeometry>
        </mxCell>
        <mxCell id="bUwD3FaFitT1GLIlqr40-97" value="Have results?" style="rhombus;fillColor=#ffffc0;strokeColor=#ff0000;whiteSpace=wrap;fontSize=10;" parent="bUwD3FaFitT1GLIlqr40-71" vertex="1">
          <mxGeometry x="111.00999999999999" y="260" width="80" height="40" as="geometry" />
        </mxCell>
        <mxCell id="bUwD3FaFitT1GLIlqr40-98" value="&lt;font style=&quot;font-size: 10px;&quot;&gt;&lt;font style=&quot;font-size: 10px;&quot;&gt;3.1.&amp;nbsp;&lt;/font&gt;Display list of related payments&lt;/font&gt;" style="rounded=1;whiteSpace=wrap;html=1;verticalAlign=middle;" parent="bUwD3FaFitT1GLIlqr40-71" vertex="1">
          <mxGeometry x="20" y="318" width="99.5" height="52" as="geometry" />
        </mxCell>
        <mxCell id="bUwD3FaFitT1GLIlqr40-95" style="edgeStyle=orthogonalEdgeStyle;rounded=0;orthogonalLoop=1;jettySize=auto;html=1;" parent="bUwD3FaFitT1GLIlqr40-71" source="bUwD3FaFitT1GLIlqr40-97" target="bUwD3FaFitT1GLIlqr40-98" edge="1">
          <mxGeometry relative="1" as="geometry">
            <Array as="points">
              <mxPoint x="80" y="280" />
            </Array>
          </mxGeometry>
        </mxCell>
        <mxCell id="bUwD3FaFitT1GLIlqr40-99" value="&lt;font style=&quot;font-size: 10px;&quot;&gt;3.2. Display the message &quot;No payments found&quot;&lt;/font&gt;" style="rounded=1;whiteSpace=wrap;html=1;verticalAlign=middle;" parent="bUwD3FaFitT1GLIlqr40-71" vertex="1">
          <mxGeometry x="180" y="318" width="100" height="52" as="geometry" />
        </mxCell>
        <mxCell id="bUwD3FaFitT1GLIlqr40-96" style="edgeStyle=orthogonalEdgeStyle;rounded=0;orthogonalLoop=1;jettySize=auto;html=1;" parent="bUwD3FaFitT1GLIlqr40-71" source="bUwD3FaFitT1GLIlqr40-97" target="bUwD3FaFitT1GLIlqr40-99" edge="1">
          <mxGeometry relative="1" as="geometry">
            <Array as="points">
              <mxPoint x="220" y="280" />
            </Array>
          </mxGeometry>
        </mxCell>
        <mxCell id="bUwD3FaFitT1GLIlqr40-100" style="edgeStyle=orthogonalEdgeStyle;rounded=0;orthogonalLoop=1;jettySize=auto;html=1;" parent="bUwD3FaFitT1GLIlqr40-71" source="bUwD3FaFitT1GLIlqr40-98" target="bUwD3FaFitT1GLIlqr40-104" edge="1">
          <mxGeometry relative="1" as="geometry">
            <Array as="points">
              <mxPoint x="80" y="410" />
              <mxPoint x="150" y="410" />
            </Array>
            <mxPoint x="154.75" y="529" as="targetPoint" />
          </mxGeometry>
        </mxCell>
        <mxCell id="bUwD3FaFitT1GLIlqr40-101" style="edgeStyle=orthogonalEdgeStyle;rounded=0;orthogonalLoop=1;jettySize=auto;html=1;" parent="bUwD3FaFitT1GLIlqr40-71" source="bUwD3FaFitT1GLIlqr40-99" target="bUwD3FaFitT1GLIlqr40-104" edge="1">
          <mxGeometry relative="1" as="geometry">
            <Array as="points">
              <mxPoint x="220" y="410" />
              <mxPoint x="150" y="410" />
            </Array>
            <mxPoint x="154.75" y="529" as="targetPoint" />
          </mxGeometry>
        </mxCell>
        <mxCell id="bUwD3FaFitT1GLIlqr40-102" value="&lt;font size=&quot;1&quot;&gt;yes&lt;/font&gt;" style="text;html=1;align=center;verticalAlign=middle;resizable=0;points=[];autosize=1;strokeColor=none;fillColor=none;" parent="bUwD3FaFitT1GLIlqr40-71" vertex="1">
          <mxGeometry x="79.5" y="270" width="40" height="30" as="geometry" />
        </mxCell>
        <mxCell id="bUwD3FaFitT1GLIlqr40-103" value="&lt;font size=&quot;1&quot;&gt;no&lt;/font&gt;" style="text;html=1;align=center;verticalAlign=middle;resizable=0;points=[];autosize=1;strokeColor=none;fillColor=none;" parent="bUwD3FaFitT1GLIlqr40-71" vertex="1">
          <mxGeometry x="182.25" y="270" width="30" height="30" as="geometry" />
        </mxCell>
        <mxCell id="bUwD3FaFitT1GLIlqr40-104" value="" style="ellipse;html=1;shape=endState;fillColor=#000000;strokeColor=#ff0000;fontSize=10;" parent="bUwD3FaFitT1GLIlqr40-71" vertex="1">
          <mxGeometry x="136" y="440" width="30" height="30" as="geometry" />
        </mxCell>
        <mxCell id="bUwD3FaFitT1GLIlqr40-86" style="edgeStyle=orthogonalEdgeStyle;rounded=0;orthogonalLoop=1;jettySize=auto;html=1;" parent="1" source="bUwD3FaFitT1GLIlqr40-69" target="bUwD3FaFitT1GLIlqr40-91" edge="1">
          <mxGeometry relative="1" as="geometry">
            <Array as="points">
              <mxPoint x="970" y="220" />
              <mxPoint x="970" y="149" />
            </Array>
            <mxPoint x="908.75" y="309.0000000000001" as="sourcePoint" />
          </mxGeometry>
        </mxCell>
      </root>
    </mxGraphModel>
  </diagram>
</mxfile>
